<svg width="12" height="12" viewBox="0 0 12 12" fill="none" xmlns="http://www.w3.org/2000/svg">
<path d="M1.43056 7.68998C1.48998 7.7494 1.53682 7.82017 1.56831 7.89808C1.59979 7.976 1.61526 8.05945 1.6138 8.14347L1.5853 9.77801C1.58383 9.86203 1.5993 9.94549 1.63077 10.0234C1.66225 10.1013 1.7091 10.1721 1.76852 10.2315C1.82794 10.2909 1.89872 10.3378 1.97664 10.3693C2.05455 10.4007 2.13801 10.4162 2.22203 10.4147L3.85658 10.3861C3.94059 10.3847 4.02404 10.4001 4.10196 10.4316C4.17987 10.4631 4.25064 10.5099 4.31006 10.5694L5.55736 11.8167C5.67477 11.9341 5.83398 12 5.99999 12C6.16599 12 6.3252 11.9341 6.44261 11.8167L7.68991 10.5694C7.74933 10.5099 7.8201 10.4631 7.89802 10.4316C7.97593 10.4001 8.05938 10.3847 8.1434 10.3861L9.77794 10.4146C9.86196 10.4161 9.94542 10.4006 10.0233 10.3691C10.1013 10.3377 10.172 10.2908 10.2315 10.2314C10.2909 10.172 10.3377 10.1012 10.3692 10.0233C10.4007 9.94537 10.4161 9.86191 10.4147 9.77789L10.386 8.14347C10.3846 8.05945 10.4001 7.976 10.4315 7.89808C10.463 7.82017 10.5099 7.7494 10.5693 7.68998L11.8166 6.44262C11.8748 6.3845 11.9209 6.31551 11.9523 6.23957C11.9838 6.16364 12 6.08225 12 6.00006C12 5.91786 11.9838 5.83648 11.9523 5.76054C11.9209 5.6846 11.8748 5.61561 11.8166 5.55749L10.5693 4.31007C10.5099 4.25066 10.463 4.17988 10.4315 4.10197C10.4001 4.02406 10.3846 3.9406 10.386 3.85659L10.4145 2.2221C10.416 2.13807 10.4006 2.05461 10.3691 1.97668C10.3376 1.89876 10.2907 1.82797 10.2313 1.76855C10.1719 1.70912 10.1011 1.66227 10.0232 1.63079C9.94525 1.59931 9.86179 1.58384 9.77776 1.58531L8.14334 1.61387C8.05931 1.61534 7.97585 1.59986 7.89792 1.56838C7.82 1.5369 7.74922 1.49005 7.68979 1.43063L6.44261 0.183333C6.32522 0.0659464 6.166 0 5.99999 0C5.83397 0 5.67475 0.0659464 5.55736 0.183333L4.31006 1.43063C4.25063 1.49005 4.17985 1.5369 4.10193 1.56838C4.024 1.59986 3.94054 1.61534 3.85651 1.61387L2.22209 1.58531C2.13806 1.58384 2.0546 1.59931 1.97667 1.63079C1.89875 1.66227 1.82796 1.70912 1.76854 1.76855C1.70911 1.82797 1.66226 1.89876 1.63078 1.97668C1.5993 2.05461 1.58383 2.13807 1.5853 2.2221L1.61392 3.85659C1.61539 3.9406 1.59992 4.02406 1.56843 4.10197C1.53695 4.17988 1.4901 4.25066 1.43068 4.31007L0.183323 5.55749C0.125203 5.61561 0.0790988 5.6846 0.0476441 5.76054C0.0161895 5.83648 0 5.91786 0 6.00006C0 6.08225 0.0161895 6.16364 0.0476441 6.23957C0.0790988 6.31551 0.125203 6.3845 0.183323 6.44262L1.43056 7.68998ZM3.77575 5.57585C3.88827 5.46337 4.04086 5.40017 4.19996 5.40017C4.35906 5.40017 4.51165 5.46337 4.62417 5.57585L5.39998 6.35166L7.3758 4.37583C7.4889 4.26614 7.64059 4.20533 7.79814 4.20653C7.95569 4.20773 8.10644 4.27086 8.21784 4.38227C8.32925 4.49368 8.39236 4.64443 8.39355 4.80198C8.39474 4.95953 8.33392 5.11122 8.22422 5.2243L5.82418 7.62434C5.71166 7.73682 5.55908 7.80001 5.39998 7.80001C5.24088 7.80001 5.08829 7.73682 4.97577 7.62434L3.77575 6.42432C3.66325 6.3118 3.60005 6.1592 3.60005 6.00008C3.60005 5.84097 3.66325 5.68837 3.77575 5.57585Z" fill="#51B874"/>
</svg>
