<svg width="15" height="12" viewBox="0 0 15 12" fill="none" xmlns="http://www.w3.org/2000/svg">
<path d="M12 1H1V2.585L4.705 6.295L5 6.585V11H7V10H8V11C8 11.2652 7.89464 11.5196 7.70711 11.7071C7.51957 11.8946 7.26522 12 7 12H5C4.73478 12 4.48043 11.8946 4.29289 11.7071C4.10536 11.5196 4 11.2652 4 11V7L0.295 3.295C0.201416 3.20197 0.127169 3.09134 0.0765388 2.96948C0.0259084 2.84763 -0.000104246 2.71696 3.13965e-07 2.585V1C3.13965e-07 0.734784 0.105357 0.48043 0.292893 0.292893C0.48043 0.105357 0.734784 0 1 0H12V1Z" fill="#F5A122"/>
<path d="M13.855 3.64497L12.355 2.14497C12.3085 2.09811 12.2532 2.06091 12.1923 2.03552C12.1314 2.01014 12.066 1.99707 12 1.99707C11.934 1.99707 11.8686 2.01014 11.8077 2.03552C11.7468 2.06091 11.6915 2.09811 11.645 2.14497L7 6.79497V8.99997H9.205L13.855 4.35497C13.9019 4.30849 13.9391 4.25319 13.9644 4.19226C13.9898 4.13133 14.0029 4.06598 14.0029 3.99997C14.0029 3.93396 13.9898 3.86861 13.9644 3.80768C13.9391 3.74675 13.9019 3.69145 13.855 3.64497ZM8.795 7.99997H8V7.20497L10.5 4.70497L11.295 5.49997L8.795 7.99997ZM12 4.79497L11.205 3.99997L12 3.20497L12.795 3.99997L12 4.79497Z" fill="#F5A122"/>
</svg>
