<svg width="57" height="48" viewBox="0 0 57 48" fill="none" xmlns="http://www.w3.org/2000/svg">
<path d="M56.007 37.8024L34.1598 3.18098C32.9009 1.19182 30.7858 0 28.4022 0C26.0185 0 23.9035 1.19182 22.6445 3.18098L0.923238 37.8024V37.8696C0.32733 38.8599 0 40.0518 0 41.2436C0 44.9533 3.04669 48 6.75643 48H50.1235C53.8332 48 56.8799 44.9533 56.8799 41.2436C56.9386 40.0518 56.6029 38.8599 56.007 37.8024ZM50.1822 44.0301H6.75643C5.23728 44.0301 3.97832 42.7711 3.97832 41.252C3.97832 40.7904 4.11261 40.3287 4.30565 39.9259L26.0857 5.36318C26.6144 4.49869 27.4789 4.03707 28.4693 4.03707C29.4597 4.03707 30.3242 4.49869 30.8529 5.36318L52.633 39.8587C52.9016 40.2532 52.9603 40.7232 52.9603 41.252C52.9687 42.7711 51.7097 44.0301 50.1822 44.0301Z" fill="white"/>
<path d="M28.4694 35.0918C27.672 35.0918 27.0761 35.3604 26.5473 35.8891C26.0186 36.4179 25.75 37.081 25.75 37.8112C25.75 38.6756 26.0186 39.3303 26.6145 39.8003C27.1432 40.2619 27.8063 40.5305 28.5365 40.5305C29.2667 40.5305 29.9298 40.2619 30.4585 39.8003C30.9873 39.3387 31.2559 38.6756 31.2559 37.8112C31.2559 37.081 30.9873 36.4179 30.4585 35.8891C29.8626 35.352 29.1996 35.0918 28.4694 35.0918Z" fill="white"/>
<path d="M28.6038 12.9082C27.7393 12.9082 27.0175 13.1768 26.4887 13.7727C25.96 14.3686 25.6914 15.0988 25.6914 16.1563C25.6914 16.8865 25.7586 18.1455 25.8257 19.7989L26.4132 28.5361C26.5475 29.6608 26.6818 30.5253 26.942 31.054C27.2106 31.5828 27.6722 31.9185 28.3352 31.9185C28.9983 31.9185 29.4599 31.6499 29.7285 31.054C29.9971 30.4581 30.1901 29.6608 30.2572 28.6033L31.1217 19.5975C31.1889 18.733 31.256 17.944 31.256 17.1467C31.256 15.7535 31.0546 14.7631 30.7272 14.0329C30.3244 13.2439 29.6613 12.9082 28.6038 12.9082Z" fill="white"/>
</svg>
