<svg width="18" height="16" viewBox="0 0 18 16" fill="none" xmlns="http://www.w3.org/2000/svg">
<path d="M8.75104 11.2434C8.26173 11.2434 7.85156 11.6536 7.85156 12.1429C7.85156 12.6322 8.26173 13.0424 8.75104 13.0424C9.22237 13.0424 9.65053 12.6322 9.62894 12.1645C9.65053 11.65 9.24396 11.2434 8.75104 11.2434Z" fill="#EA2D5A"/>
<path d="M17.0767 14.4313C17.6416 13.4563 17.6452 12.2941 17.0839 11.3227L11.4496 1.5651C10.8919 0.582865 9.88446 0 8.7547 0C7.62495 0 6.61753 0.586463 6.05985 1.5615L0.418278 11.3299C-0.143001 12.3121 -0.139403 13.4814 0.429071 14.4565C0.99035 15.4207 1.99417 16 3.11673 16H14.3711C15.4972 16 16.5083 15.4135 17.0767 14.4313ZM15.8534 13.7261C15.5404 14.2658 14.9863 14.586 14.3675 14.586H3.11313C2.50148 14.586 1.951 14.273 1.64517 13.7441C1.33575 13.208 1.33215 12.5676 1.64158 12.0279L7.28314 2.2631C7.58897 1.72701 8.13586 1.41039 8.7547 1.41039C9.36995 1.41039 9.92043 1.7306 10.2263 2.2667L15.8642 12.0315C16.1665 12.5568 16.1629 13.19 15.8534 13.7261Z" fill="#EA2D5A"/>
<path d="M8.52789 4.9292C8.09974 5.05153 7.8335 5.44011 7.8335 5.91144C7.85508 6.19568 7.87307 6.48351 7.89466 6.76775C7.95582 7.85073 8.01699 8.91213 8.07815 9.99511C8.09974 10.3621 8.38397 10.6283 8.75096 10.6283C9.11794 10.6283 9.40577 10.3441 9.42376 9.97352C9.42376 9.75045 9.42376 9.54536 9.44535 9.31869C9.48493 8.62429 9.5281 7.92989 9.56768 7.23548C9.58927 6.78574 9.62884 6.336 9.65043 5.88626C9.65043 5.72435 9.62884 5.58043 9.56768 5.43651C9.38419 5.03354 8.95604 4.82846 8.52789 4.9292Z" fill="#EA2D5A"/>
</svg>
